<svg width="20" height="20" viewBox="0 0 20 20" fill="none" xmlns="http://www.w3.org/2000/svg">
<path fill-rule="evenodd" clip-rule="evenodd" d="M13.3327 3.3335H3.33268C2.89065 3.3335 2.46673 3.50909 2.15417 3.82165C1.84161 4.13421 1.66602 4.55814 1.66602 5.00016V15.0002C1.66602 15.4422 1.84161 15.8661 2.15417 16.1787C2.46673 16.4912 2.89065 16.6668 3.33268 16.6668H13.3327C13.3327 16.4458 13.4205 16.2339 13.5768 16.0776C13.733 15.9213 13.945 15.8335 14.166 15.8335C14.387 15.8335 14.599 15.9213 14.7553 16.0776C14.9116 16.2339 14.9993 16.4458 14.9993 16.6668H16.666C17.108 16.6668 17.532 16.4912 17.8445 16.1787C18.1571 15.8661 18.3327 15.4422 18.3327 15.0002V5.00016C18.3327 4.55814 18.1571 4.13421 17.8445 3.82165C17.532 3.50909 17.108 3.3335 16.666 3.3335H14.9993C14.9993 3.55451 14.9116 3.76647 14.7553 3.92275C14.599 4.07903 14.387 4.16683 14.166 4.16683C13.945 4.16683 13.733 4.07903 13.5768 3.92275C13.4205 3.76647 13.3327 3.55451 13.3327 3.3335ZM14.166 7.501C14.387 7.501 14.599 7.4132 14.7553 7.25692C14.9116 7.10064 14.9993 6.88868 14.9993 6.66766V6.66683C14.9993 6.44582 14.9116 6.23385 14.7553 6.07757C14.599 5.92129 14.387 5.8335 14.166 5.8335C13.945 5.8335 13.733 5.92129 13.5768 6.07757C13.4205 6.23385 13.3327 6.44582 13.3327 6.66683V6.66766C13.3327 6.88868 13.4205 7.10064 13.5768 7.25692C13.733 7.4132 13.945 7.501 14.166 7.501ZM14.9993 10.001C14.9993 10.222 14.9116 10.434 14.7553 10.5903C14.599 10.7465 14.387 10.8343 14.166 10.8343C13.945 10.8343 13.733 10.7465 13.5768 10.5903C13.4205 10.434 13.3327 10.222 13.3327 10.001V10.0002C13.3327 9.77915 13.4205 9.56719 13.5768 9.41091C13.733 9.25463 13.945 9.16683 14.166 9.16683C14.387 9.16683 14.599 9.25463 14.7553 9.41091C14.9116 9.56719 14.9993 9.77915 14.9993 10.0002V10.001ZM14.166 14.1677C14.387 14.1677 14.599 14.0799 14.7553 13.9236C14.9116 13.7673 14.9993 13.5553 14.9993 13.3343C14.9993 13.1133 14.9116 12.9005 14.7553 12.7442C14.599 12.588 14.387 12.5002 14.166 12.5002C13.945 12.5002 13.733 12.588 13.5768 12.7442C13.4205 12.9005 13.3327 13.1125 13.3327 13.3335C13.3327 13.5545 13.4205 13.7673 13.5768 13.9236C13.733 14.0799 13.945 14.1677 14.166 14.1677ZM11.526 7.96266C11.6487 7.77878 11.6933 7.5537 11.65 7.33694C11.6067 7.12018 11.4791 6.92949 11.2952 6.80683C11.1113 6.68417 10.8862 6.63958 10.6695 6.68287C10.4527 6.72616 10.262 6.85378 10.1393 7.03766L7.37018 11.1918L6.42185 10.2443C6.26468 10.0925 6.05418 10.0085 5.83568 10.0104C5.61718 10.0123 5.40817 10.1 5.25367 10.2545C5.09916 10.409 5.01152 10.618 5.00962 10.8365C5.00772 11.055 5.09172 11.2655 5.24352 11.4227L6.91018 13.0893C6.99734 13.1767 7.10281 13.2435 7.21896 13.2851C7.33512 13.3268 7.45906 13.3421 7.58185 13.3299C7.70463 13.3178 7.8232 13.2786 7.92897 13.2151C8.03475 13.1516 8.12511 13.0653 8.19352 12.9627L11.5268 7.96266H11.526Z" fill="#737C90"/>
</svg>
