<svg width="20" height="20" viewBox="0 0 20 20" fill="none" xmlns="http://www.w3.org/2000/svg">
<path fill-rule="evenodd" clip-rule="evenodd" d="M13.3327 3.3335H3.33268C2.89065 3.3335 2.46673 3.50909 2.15417 3.82165C1.84161 4.13421 1.66602 4.55814 1.66602 5.00016V15.0002C1.66602 15.4422 1.84161 15.8661 2.15417 16.1787C2.46673 16.4912 2.89065 16.6668 3.33268 16.6668H13.3327C13.3327 16.4458 13.4205 16.2339 13.5768 16.0776C13.733 15.9213 13.945 15.8335 14.166 15.8335C14.387 15.8335 14.599 15.9213 14.7553 16.0776C14.9116 16.2339 14.9993 16.4458 14.9993 16.6668H16.666C17.108 16.6668 17.532 16.4912 17.8445 16.1787C18.1571 15.8661 18.3327 15.4422 18.3327 15.0002V5.00016C18.3327 4.55814 18.1571 4.13421 17.8445 3.82165C17.532 3.50909 17.108 3.3335 16.666 3.3335H14.9993C14.9993 3.55451 14.9116 3.76647 14.7553 3.92275C14.599 4.07903 14.387 4.16683 14.166 4.16683C13.945 4.16683 13.733 4.07903 13.5768 3.92275C13.4205 3.76647 13.3327 3.55451 13.3327 3.3335ZM14.166 7.501C14.387 7.501 14.599 7.4132 14.7553 7.25692C14.9116 7.10064 14.9993 6.88868 14.9993 6.66766V6.66683C14.9993 6.44582 14.9116 6.23385 14.7553 6.07757C14.599 5.92129 14.387 5.8335 14.166 5.8335C13.945 5.8335 13.733 5.92129 13.5768 6.07757C13.4205 6.23385 13.3327 6.44582 13.3327 6.66683V6.66766C13.3327 6.88868 13.4205 7.10064 13.5768 7.25692C13.733 7.4132 13.945 7.501 14.166 7.501ZM14.9993 10.001C14.9993 10.222 14.9116 10.434 14.7553 10.5903C14.599 10.7465 14.387 10.8343 14.166 10.8343C13.945 10.8343 13.733 10.7465 13.5768 10.5903C13.4205 10.434 13.3327 10.222 13.3327 10.001V10.0002C13.3327 9.77915 13.4205 9.56719 13.5768 9.41091C13.733 9.25463 13.945 9.16683 14.166 9.16683C14.387 9.16683 14.599 9.25463 14.7553 9.41091C14.9116 9.56719 14.9993 9.77915 14.9993 10.0002V10.001ZM14.166 14.1677C14.387 14.1677 14.599 14.0799 14.7553 13.9236C14.9116 13.7673 14.9993 13.5553 14.9993 13.3343C14.9993 13.1133 14.9116 12.9005 14.7553 12.7442C14.599 12.588 14.387 12.5002 14.166 12.5002C13.945 12.5002 13.733 12.588 13.5768 12.7442C13.4205 12.9005 13.3327 13.1125 13.3327 13.3335C13.3327 13.5545 13.4205 13.7673 13.5768 13.9236C13.733 14.0799 13.945 14.1677 14.166 14.1677ZM11.526 7.96266C11.6487 7.77878 11.6933 7.5537 11.65 7.33694C11.6067 7.12018 11.4791 6.92949 11.2952 6.80683C11.1113 6.68417 10.8862 6.63958 10.6695 6.68287C10.4527 6.72616 10.262 6.85378 10.1393 7.03766L7.37018 11.1918L6.42185 10.2443C6.26468 10.0925 6.05418 10.0085 5.83568 10.0104C5.61718 10.0123 5.40817 10.1 5.25367 10.2545C5.09916 10.409 5.01152 10.618 5.00962 10.8365C5.00772 11.055 5.09172 11.2655 5.24352 11.4227L6.91018 13.0893C6.99734 13.1767 7.10281 13.2435 7.21896 13.2851C7.33512 13.3268 7.45906 13.3421 7.58185 13.3299C7.70463 13.3178 7.8232 13.2786 7.92897 13.2151C8.03475 13.1516 8.12511 13.0653 8.19352 12.9627L11.5268 7.96266H11.526Z" fill="#737C90"/>
<path fill-rule="evenodd" clip-rule="evenodd" d="M1.25 5.3125C1.25 4.44917 1.95 3.75 2.8125 3.75H17.1875C18.05 3.75 18.75 4.45 18.75 5.3125V7.83417C18.7501 7.94394 18.7212 8.05181 18.6664 8.14689C18.6115 8.24198 18.5326 8.32094 18.4375 8.37583C18.1521 8.54018 17.915 8.77684 17.7502 9.06197C17.5853 9.34711 17.4985 9.67064 17.4985 10C17.4985 10.3294 17.5853 10.6529 17.7502 10.938C17.915 11.2232 18.1521 11.4598 18.4375 11.6242C18.5326 11.6791 18.6115 11.758 18.6664 11.8531C18.7212 11.9482 18.7501 12.0561 18.75 12.1658V14.6875C18.75 15.55 18.05 16.25 17.1875 16.25H2.8125C2.3981 16.25 2.00067 16.0854 1.70765 15.7924C1.41462 15.4993 1.25 15.1019 1.25 14.6875V12.1658C1.24985 12.0561 1.27857 11.9483 1.33327 11.8532C1.38798 11.7582 1.46675 11.6792 1.56167 11.6242C1.84709 11.4598 2.08416 11.2232 2.24901 10.938C2.41385 10.6529 2.50064 10.3294 2.50064 10C2.50064 9.67064 2.41385 9.34711 2.24901 9.06197C2.08416 8.77684 1.84709 8.54018 1.56167 8.37583C1.46675 8.32084 1.38798 8.24183 1.33327 8.14675C1.27857 8.05167 1.24985 7.94386 1.25 7.83417V5.3125ZM13.75 4.375C13.9158 4.375 14.0747 4.44085 14.1919 4.55806C14.3092 4.67527 14.375 4.83424 14.375 5V5.625C14.375 5.79076 14.3092 5.94973 14.1919 6.06694C14.0747 6.18415 13.9158 6.25 13.75 6.25C13.5842 6.25 13.4253 6.18415 13.3081 6.06694C13.1908 5.94973 13.125 5.79076 13.125 5.625V5C13.125 4.83424 13.1908 4.67527 13.3081 4.55806C13.4253 4.44085 13.5842 4.375 13.75 4.375ZM14.375 8.125C14.375 7.95924 14.3092 7.80027 14.1919 7.68306C14.0747 7.56585 13.9158 7.5 13.75 7.5C13.5842 7.5 13.4253 7.56585 13.3081 7.68306C13.1908 7.80027 13.125 7.95924 13.125 8.125V8.75C13.125 8.91576 13.1908 9.07473 13.3081 9.19194C13.4253 9.30915 13.5842 9.375 13.75 9.375C13.9158 9.375 14.0747 9.30915 14.1919 9.19194C14.3092 9.07473 14.375 8.91576 14.375 8.75V8.125ZM13.75 10.625C13.9158 10.625 14.0747 10.6908 14.1919 10.8081C14.3092 10.9253 14.375 11.0842 14.375 11.25V11.875C14.375 12.0408 14.3092 12.1997 14.1919 12.3169C14.0747 12.4342 13.9158 12.5 13.75 12.5C13.5842 12.5 13.4253 12.4342 13.3081 12.3169C13.1908 12.1997 13.125 12.0408 13.125 11.875V11.25C13.125 11.0842 13.1908 10.9253 13.3081 10.8081C13.4253 10.6908 13.5842 10.625 13.75 10.625ZM14.375 14.375C14.375 14.2092 14.3092 14.0503 14.1919 13.9331C14.0747 13.8158 13.9158 13.75 13.75 13.75C13.5842 13.75 13.4253 13.8158 13.3081 13.9331C13.1908 14.0503 13.125 14.2092 13.125 14.375V15C13.125 15.1658 13.1908 15.3247 13.3081 15.4419C13.4253 15.5592 13.5842 15.625 13.75 15.625C13.9158 15.625 14.0747 15.5592 14.1919 15.4419C14.3092 15.3247 14.375 15.1658 14.375 15V14.375ZM5 10C5 9.83424 5.06585 9.67527 5.18306 9.55806C5.30027 9.44085 5.45924 9.375 5.625 9.375H10C10.1658 9.375 10.3247 9.44085 10.4419 9.55806C10.5592 9.67527 10.625 9.83424 10.625 10C10.625 10.1658 10.5592 10.3247 10.4419 10.4419C10.3247 10.5592 10.1658 10.625 10 10.625H5.625C5.45924 10.625 5.30027 10.5592 5.18306 10.4419C5.06585 10.3247 5 10.1658 5 10ZM5.625 11.875C5.45924 11.875 5.30027 11.9408 5.18306 12.0581C5.06585 12.1753 5 12.3342 5 12.5C5 12.6658 5.06585 12.8247 5.18306 12.9419C5.30027 13.0592 5.45924 13.125 5.625 13.125H8.125C8.29076 13.125 8.44973 13.0592 8.56694 12.9419C8.68415 12.8247 8.75 12.6658 8.75 12.5C8.75 12.3342 8.68415 12.1753 8.56694 12.0581C8.44973 11.9408 8.29076 11.875 8.125 11.875H5.625Z" fill="#737C90"/>
</svg>
