<svg width="20" height="20" viewBox="0 0 20 20" fill="none" xmlns="http://www.w3.org/2000/svg">
<path d="M16.666 10.0002C16.666 10.4422 16.8416 10.8661 17.1542 11.1787C17.4667 11.4912 17.8907 11.6668 18.3327 11.6668V15.0002C18.3327 15.4422 18.1571 15.8661 17.8445 16.1787C17.532 16.4912 17.108 16.6668 16.666 16.6668H3.33268C2.89065 16.6668 2.46673 16.4912 2.15417 16.1787C1.84161 15.8661 1.66602 15.4422 1.66602 15.0002V11.6668C2.10804 11.6668 2.53197 11.4912 2.84453 11.1787C3.15709 10.8661 3.33268 10.4422 3.33268 10.0002C3.33268 9.55814 3.15709 9.13421 2.84453 8.82165C2.53197 8.50909 2.10804 8.3335 1.66602 8.3335V5.00016C1.66602 4.55814 1.84161 4.13421 2.15417 3.82165C2.46673 3.50909 2.89065 3.3335 3.33268 3.3335H16.666C17.108 3.3335 17.532 3.50909 17.8445 3.82165C18.1571 4.13421 18.3327 4.55814 18.3327 5.00016V8.3335C17.8907 8.3335 17.4667 8.50909 17.1542 8.82165C16.8416 9.13421 16.666 9.55814 16.666 10.0002ZM13.7493 13.5418C13.7493 12.2918 11.2493 11.6668 9.99935 11.6668C8.74935 11.6668 6.24935 12.2918 6.24935 13.5418V14.1668H13.7493V13.5418ZM9.99935 10.2085C10.4966 10.2085 10.9735 10.011 11.3252 9.65932C11.6768 9.30769 11.8743 8.83078 11.8743 8.3335C11.8743 7.83622 11.6768 7.3593 11.3252 7.00767C10.9735 6.65604 10.4966 6.4585 9.99935 6.4585C9.50207 6.4585 9.02515 6.65604 8.67352 7.00767C8.32189 7.3593 8.12435 7.83622 8.12435 8.3335C8.12435 8.83078 8.32189 9.30769 8.67352 9.65932C9.02515 10.011 9.50207 10.2085 9.99935 10.2085Z" fill="#737C90"/>
</svg>
