<svg width="20" height="20" viewBox="0 0 20 20" fill="none" xmlns="http://www.w3.org/2000/svg">
<g clip-path="url(#clip0_2979_1877)">
<path d="M4.90541 11.5409L8.45641 15.0939L14.9744 8.57588L11.4214 5.02488L4.90541 11.5409ZM19.1034 6.66388L17.5924 5.15188C17.2086 5.36158 16.7672 5.44133 16.3343 5.37919C15.9014 5.31705 15.5003 5.11636 15.191 4.80717C14.8817 4.49798 14.6809 4.09692 14.6186 3.66404C14.5563 3.23116 14.6359 2.78974 14.8454 2.40588L13.3344 0.893879C13.1439 0.705061 12.8866 0.599121 12.6184 0.599121C12.3502 0.599121 12.0929 0.705061 11.9024 0.893879L0.892415 11.9039C0.703596 12.0943 0.597656 12.3517 0.597656 12.6199C0.597656 12.8881 0.703596 13.1454 0.892415 13.3359L2.40441 14.8459C2.78839 14.6356 3.23019 14.5555 3.66354 14.6176C4.09688 14.6797 4.49842 14.8806 4.80791 15.1903C5.11741 15.4999 5.31818 15.9015 5.38011 16.3348C5.44205 16.7682 5.3618 17.21 5.15141 17.5939L6.66341 19.1039C6.85362 19.2932 7.11106 19.3995 7.37941 19.3995C7.64777 19.3995 7.90521 19.2932 8.09541 19.1039L19.1034 8.09588C19.2927 7.90567 19.399 7.64824 19.399 7.37988C19.399 7.11152 19.2927 6.85409 19.1034 6.66388ZM8.45641 16.7189L3.28041 11.5409L11.4224 3.39988L16.5984 8.57588L8.45641 16.7189Z" fill="#737C90"/>
</g>
<defs>
<clipPath id="clip0_2979_1877">
<rect width="20" height="20" fill="white"/>
</clipPath>
</defs>
</svg>
