<svg width="20" height="20" viewBox="0 0 20 20" fill="none" xmlns="http://www.w3.org/2000/svg">
<path fill-rule="evenodd" clip-rule="evenodd" d="M1.85602 4.87683C1.66602 5.336 1.66602 5.9185 1.66602 7.0835V7.7085C1.66602 8.0535 1.94602 8.3335 2.29102 8.3335H2.49935C2.94138 8.3335 3.3653 8.50909 3.67786 8.82165C3.99042 9.13421 4.16602 9.55814 4.16602 10.0002C4.16602 10.4422 3.99042 10.8661 3.67786 11.1787C3.3653 11.4912 2.94138 11.6668 2.49935 11.6668H2.29102C2.12526 11.6668 1.96628 11.7327 1.84907 11.8499C1.73186 11.9671 1.66602 12.1261 1.66602 12.2918V12.9168C1.66602 14.0818 1.66602 14.6643 1.85602 15.1235C1.98165 15.4269 2.16584 15.7026 2.39805 15.9348C2.63026 16.167 2.90594 16.3512 3.20935 16.4768C3.66852 16.6668 4.25102 16.6668 5.41602 16.6668H14.5827C15.7477 16.6668 16.3302 16.6668 16.7893 16.4768C17.0928 16.3512 17.3684 16.167 17.6006 15.9348C17.8329 15.7026 18.017 15.4269 18.1427 15.1235C18.3327 14.6643 18.3327 14.0818 18.3327 12.9168V12.2918C18.3327 12.1261 18.2668 11.9671 18.1496 11.8499C18.0324 11.7327 17.8734 11.6668 17.7077 11.6668H17.4993C17.0573 11.6668 16.6334 11.4912 16.3208 11.1787C16.0083 10.8661 15.8327 10.4422 15.8327 10.0002C15.8327 9.55814 16.0083 9.13421 16.3208 8.82165C16.6334 8.50909 17.0573 8.3335 17.4993 8.3335H17.7077C17.8734 8.3335 18.0324 8.26765 18.1496 8.15044C18.2668 8.03323 18.3327 7.87426 18.3327 7.7085V7.0835C18.3327 5.9185 18.3327 5.336 18.1427 4.87683C18.017 4.57342 17.8329 4.29774 17.6006 4.06553C17.3684 3.83332 17.0928 3.64913 16.7893 3.5235C16.3302 3.3335 15.7477 3.3335 14.5827 3.3335H5.41602C4.25102 3.3335 3.66852 3.3335 3.20935 3.5235C2.90594 3.64913 2.63026 3.83332 2.39805 4.06553C2.16584 4.29774 1.98165 4.57342 1.85602 4.87683ZM9.63018 8.90683C9.55018 9.1135 9.51018 9.21683 9.43602 9.28683C9.41538 9.3066 9.39276 9.32419 9.36852 9.33933C9.28185 9.39266 9.17435 9.40266 8.95935 9.42266C8.59518 9.456 8.41352 9.4735 8.35768 9.581C8.34633 9.60357 8.33846 9.62773 8.33435 9.65266C8.31602 9.7735 8.44935 9.90016 8.71768 10.1527L8.79185 10.2227C8.91685 10.341 8.97935 10.4002 9.01602 10.4735C9.03713 10.5184 9.05145 10.5661 9.05852 10.6152C9.07018 10.6968 9.05185 10.7818 9.01518 10.9535L9.00185 11.0152C8.93602 11.3227 8.90352 11.476 8.94435 11.5518C8.96186 11.5849 8.98765 11.6129 9.01919 11.6331C9.05074 11.6532 9.08697 11.6648 9.12435 11.6668C9.20768 11.671 9.32518 11.5718 9.56102 11.3727C9.71518 11.241 9.79268 11.176 9.87935 11.1502C9.95762 11.1266 10.0411 11.1266 10.1193 11.1502C10.206 11.1752 10.2835 11.2418 10.4385 11.3727C10.6735 11.5718 10.791 11.671 10.8743 11.6668C10.9117 11.6648 10.948 11.6532 10.9795 11.6331C11.0111 11.6129 11.0368 11.5849 11.0543 11.5518C11.0952 11.4768 11.0627 11.3227 10.996 11.0152L10.9835 10.9535C10.9468 10.7827 10.9285 10.6968 10.9402 10.6152C10.9472 10.5661 10.9616 10.5184 10.9827 10.4735C11.0193 10.4002 11.0818 10.3402 11.2068 10.2235L11.2818 10.1527C11.5485 9.90016 11.6827 9.7735 11.6643 9.65266C11.6602 9.62773 11.6524 9.60357 11.641 9.581C11.5852 9.4735 11.4035 9.456 11.0393 9.42266C10.8243 9.40266 10.7168 9.39266 10.631 9.33933C10.6065 9.32424 10.5836 9.30664 10.5627 9.28683C10.4877 9.21683 10.4485 9.1135 10.3685 8.90683C10.2285 8.54516 10.1585 8.3635 10.0452 8.3385C10.0149 8.33285 9.98381 8.33285 9.95352 8.3385C9.84018 8.3635 9.77018 8.54516 9.63018 8.90683Z" fill="#737C90"/>
<path d="M12.9827 14.0002L9.99935 12.0835L7.01602 14.0002L7.91602 10.5668L5.17435 8.3335L8.71602 8.11683L9.99935 4.8335L11.2827 8.11683L14.8243 8.3335L12.0827 10.5668M16.666 10.0002C16.666 9.55814 16.8416 9.13421 17.1542 8.82165C17.4667 8.50909 17.8907 8.3335 18.3327 8.3335V5.00016C18.3327 4.55814 18.1571 4.13421 17.8445 3.82165C17.532 3.50909 17.108 3.3335 16.666 3.3335H3.33268C2.89065 3.3335 2.46673 3.50909 2.15417 3.82165C1.84161 4.13421 1.66602 4.55814 1.66602 5.00016V8.3335C2.10804 8.3335 2.53197 8.50909 2.84453 8.82165C3.15709 9.13421 3.33268 9.55814 3.33268 10.0002C3.33268 10.4422 3.15709 10.8661 2.84453 11.1787C2.53197 11.4912 2.10804 11.6668 1.66602 11.6668V15.0002C1.66602 15.4422 1.84161 15.8661 2.15417 16.1787C2.46673 16.4912 2.89065 16.6668 3.33268 16.6668H16.666C17.108 16.6668 17.532 16.4912 17.8445 16.1787C18.1571 15.8661 18.3327 15.4422 18.3327 15.0002V11.6668C17.8907 11.6668 17.4667 11.4912 17.1542 11.1787C16.8416 10.8661 16.666 10.4422 16.666 10.0002Z" fill="#737C90"/>
</svg>
