<svg width="20" height="20" viewBox="0 0 20 20" fill="none" xmlns="http://www.w3.org/2000/svg">
<path d="M12.7353 2.5302C12.5727 2.36768 12.3798 2.23876 12.1675 2.15081C11.9552 2.06285 11.7276 2.01758 11.4978 2.01758C11.2679 2.01758 11.0403 2.06285 10.828 2.15081C10.6157 2.23876 10.4228 2.36768 10.2603 2.5302L2.52825 10.2622C2.36573 10.4247 2.23681 10.6176 2.14885 10.83C2.0609 11.0423 2.01562 11.2699 2.01562 11.4997C2.01562 11.7295 2.0609 11.9571 2.14885 12.1694C2.23681 12.3818 2.36573 12.5747 2.52825 12.7372L3.30325 13.5122C3.71025 13.9192 4.28925 13.8492 4.64925 13.6522C4.88627 13.5229 5.1588 13.4738 5.42605 13.5122C5.69331 13.5507 5.94092 13.6747 6.13184 13.8656C6.32277 14.0565 6.44674 14.3041 6.48521 14.5714C6.52368 14.8387 6.47458 15.1112 6.34525 15.3482C6.14925 15.7082 6.07925 16.2882 6.48525 16.6952L7.26025 17.4692C7.42276 17.6317 7.61568 17.7606 7.82801 17.8486C8.04035 17.9366 8.26792 17.9818 8.49775 17.9818C8.72758 17.9818 8.95516 17.9366 9.16749 17.8486C9.37982 17.7606 9.57275 17.6317 9.73525 17.4692L17.4683 9.7372C17.6308 9.5747 17.7597 9.38177 17.8477 9.16944C17.9356 8.95711 17.9809 8.72953 17.9809 8.4997C17.9809 8.26988 17.9356 8.0423 17.8477 7.82997C17.7597 7.61764 17.6308 7.42471 17.4683 7.2622L16.6923 6.4872C16.2863 6.0812 15.7073 6.1502 15.3473 6.3472C15.1102 6.47653 14.8377 6.52563 14.5704 6.48716C14.3032 6.44869 14.0556 6.32472 13.8647 6.1338C13.6737 5.94287 13.5498 5.69526 13.5113 5.42801C13.4728 5.16075 13.5219 4.88823 13.6513 4.6512C13.8473 4.2912 13.9173 3.7112 13.5113 3.3052L12.7353 2.5302Z" fill="#737C90"/>
</svg>
